<svg width="24" height="24" viewBox="0 0 24 24" fill="none" xmlns="http://www.w3.org/2000/svg">
<g clip-path="url(#clip0_6101_15669)">
<path d="M12.0293 2C6.5093 2 2.0293 6.48 2.0293 12C2.0293 17.52 6.5093 22 12.0293 22C17.5493 22 22.0293 17.52 22.0293 12C22.0293 9.35 20.9793 6.8 19.1093 4.92C17.2293 3.05 14.6893 2 12.0293 2Z" stroke="#F5F5F5" stroke-width="1.5" stroke-linecap="round" stroke-linejoin="round"/>
<path d="M2.55078 15.2L2.61078 15.14C4.18078 13.57 7.14079 16.9 8.90079 15.14C10.4708 13.57 8.11079 11.21 10.4708 8.85002C12.6908 6.63002 11.2608 4.92001 8.90079 2.56001L8.8508 2.51001" stroke="#F5F5F5" stroke-width="1.5" stroke-linecap="round" stroke-linejoin="round"/>
<path d="M11.4491 21.97C11.3691 21.81 11.3091 21.64 11.2591 21.46C10.9591 20.3 11.2891 19.07 12.1391 18.23C12.9891 17.39 14.2191 17.07 15.3791 17.38C16.5291 17.7 17.4291 18.6 17.7291 19.76C17.7591 19.89 17.7791 20.02 17.7891 20.16" stroke="#F5F5F5" stroke-width="1.5" stroke-linecap="round" stroke-linejoin="round"/>
</g>
<defs>
<clipPath id="clip0_6101_15669">
<rect width="24" height="24" fill="white"/>
</clipPath>
</defs>
</svg>
